# xmcd
#
# Track frame offsets:
#	150
#	18961
#	29937
#	46619
#	70916
#	93410
#	104256
#	117955
#	132287
#	140826
#	163490
#	182916
#	204238
#	222282
#	243716
#	259560
#	287347
#	304771
#	344717
#
# Disc length: 4743 seconds
#
# Revision: 1
# Processed by: cddbd v1.5.1PL2 Copyright (c) Steve Scherf et al.
# Submitted via: freedbtool 1.11
#
DISCID=25128513
DTITLE=Stevie Ray Vaughan and Double Trouble - De Luxe Collection
DYEAR=1900
DGENRE=
TTITLE0=The Sky is Crying
TTITLE1=The House is Rockin'
TTITLE2=Pride and Joy
TTITLE3=Texas flood
TTITLE4=Lenny
TTITLE5=Love Struck Baby
TTITLE6=Pipeline
TTITLE7=Look at Little Sister
TTITLE8=Scuttle Buttin'
TTITLE9=Dirty Pool
TTITLE10=Life Without You
TTITLE11=Could't Stand the Weather
TTITLE12=Change it
TTITLE13=Hard To Be
TTITLE14=Empty Arms
TTITLE15=Ain't Gone 'n' Give up on Love
TTITLE16=White Boots
TTITLE17=Rivier Paradise
TTITLE18=Life by the Drop
EXTD=
EXTT0=
EXTT1=
EXTT2=
EXTT3=
EXTT4=
EXTT5=
EXTT6=
EXTT7=
EXTT8=
EXTT9=
EXTT10=
EXTT11=
EXTT12=
EXTT13=
EXTT14=
EXTT15=
EXTT16=
EXTT17=
EXTT18=
PLAYORDER=
